<?xml version="1.0" encoding="utf-8" standalone="no"?>
<!DOCTYPE svg PUBLIC "-//W3C//DTD SVG 1.1//EN"
  "http://www.w3.org/Graphics/SVG/1.1/DTD/svg11.dtd">
<svg xmlns:xlink="http://www.w3.org/1999/xlink" width="460.8pt" height="345.6pt" viewBox="0 0 460.8 345.6" xmlns="http://www.w3.org/2000/svg" version="1.1">
 <metadata>
  <rdf:RDF xmlns:dc="http://purl.org/dc/elements/1.1/" xmlns:cc="http://creativecommons.org/ns#" xmlns:rdf="http://www.w3.org/1999/02/22-rdf-syntax-ns#">
   <cc:Work>
    <dc:type rdf:resource="http://purl.org/dc/dcmitype/StillImage"/>
    <dc:date>2023-09-05T14:37:28.946750</dc:date>
    <dc:format>image/svg+xml</dc:format>
    <dc:creator>
     <cc:Agent>
      <dc:title>Matplotlib v3.6.3, https://matplotlib.org/</dc:title>
     </cc:Agent>
    </dc:creator>
   </cc:Work>
  </rdf:RDF>
 </metadata>
 <defs>
  <style type="text/css">*{stroke-linejoin: round; stroke-linecap: butt}</style>
 </defs>
 <g id="figure_1">
  <g id="patch_1">
   <path d="M 0 345.6 
L 460.8 345.6 
L 460.8 0 
L 0 0 
z
" style="fill: #ffffff"/>
  </g>
  <g id="axes_1">
   <g id="patch_2">
    <path d="M 57.6 307.584 
L 414.72 307.584 
L 414.72 41.472 
L 57.6 41.472 
z
" style="fill: #ffffff"/>
   </g>
   <g id="PolyCollection_1">
    <defs>
     <path id="m0ca55fce4c" d="M 57.6 -72.462303 
L 57.6 -72.462303 
L 64.7424 -72.462303 
L 71.8848 -71.883373 
L 79.0272 -72.333652 
L 86.1696 -72.301489 
L 93.312 -71.915536 
L 100.4544 -71.49742 
L 107.5968 -72.108512 
L 114.7392 -71.883373 
L 121.8816 -72.462303 
L 129.024 -71.658234 
L 136.1664 -72.462303 
L 143.3088 -72.462303 
L 150.4512 -72.462303 
L 157.5936 -72.269326 
L 164.736 -72.365814 
L 171.8784 -72.462303 
L 179.0208 -72.462303 
L 186.1632 -72.462303 
L 193.3056 -72.462303 
L 200.448 -72.462303 
L 207.5904 -72.397977 
L 214.7328 -72.140675 
L 221.8752 -72.108512 
L 229.0176 -71.947699 
L 236.16 -72.462303 
L 243.3024 -71.561746 
L 250.4448 -72.462303 
L 257.5872 -72.462303 
L 264.7296 -72.269326 
L 271.872 -72.462303 
L 279.0144 -72.108512 
L 286.1568 -72.43014 
L 293.2992 -71.786885 
L 300.4416 -72.397977 
L 307.584 -72.044187 
L 314.7264 -72.462303 
L 321.8688 -72.365814 
L 329.0112 -72.462303 
L 336.1536 -72.365814 
L 343.296 -71.593908 
L 350.4384 -71.240118 
L 357.5808 -72.365814 
L 364.7232 -72.462303 
L 371.8656 -72.462303 
L 379.008 -71.690397 
L 386.1504 -72.462303 
L 393.2928 -72.462303 
L 400.4352 -72.044187 
L 407.5776 -72.43014 
L 414.72 -72.462303 
L 414.72 -72.462303 
L 414.72 -72.462303 
L 407.5776 -72.365814 
L 400.4352 -71.722559 
L 393.2928 -72.462303 
L 386.1504 -72.462303 
L 379.008 -71.49742 
L 371.8656 -72.462303 
L 364.7232 -72.462303 
L 357.5808 -72.044187 
L 350.4384 -70.645107 
L 343.296 -71.400932 
L 336.1536 -72.108512 
L 329.0112 -72.462303 
L 321.8688 -72.108512 
L 314.7264 -72.462303 
L 307.584 -71.722559 
L 300.4416 -72.333652 
L 293.2992 -71.529583 
L 286.1568 -72.43014 
L 279.0144 -71.786885 
L 271.872 -72.462303 
L 264.7296 -71.947699 
L 257.5872 -72.462303 
L 250.4448 -72.462303 
L 243.3024 -71.368769 
L 236.16 -72.462303 
L 229.0176 -71.690397 
L 221.8752 -71.85121 
L 214.7328 -71.947699 
L 207.5904 -72.333652 
L 200.448 -72.462303 
L 193.3056 -72.462303 
L 186.1632 -72.462303 
L 179.0208 -72.333652 
L 171.8784 -72.462303 
L 164.736 -72.108512 
L 157.5936 -71.947699 
L 150.4512 -72.462303 
L 143.3088 -72.462303 
L 136.1664 -72.462303 
L 129.024 -71.465257 
L 121.8816 -72.462303 
L 114.7392 -71.561746 
L 107.5968 -71.786885 
L 100.4544 -71.111467 
L 93.312 -71.658234 
L 86.1696 -71.979861 
L 79.0272 -72.012024 
L 71.8848 -71.49742 
L 64.7424 -72.462303 
L 57.6 -72.462303 
z
" style="stroke: #1f77b4; stroke-opacity: 0.2"/>
    </defs>
    <g clip-path="url(#p653413f3f1)">
     <use xlink:href="#m0ca55fce4c" x="0" y="345.6" style="fill: #1f77b4; fill-opacity: 0.2; stroke: #1f77b4; stroke-opacity: 0.2"/>
    </g>
   </g>
   <g id="PolyCollection_2">
    <defs>
     <path id="m3195a0e3f8" d="M 57.6 -72.462303 
L 57.6 -72.462303 
L 64.7424 -72.462303 
L 71.8848 -72.108512 
L 79.0272 -72.462303 
L 86.1696 -72.462303 
L 93.312 -72.108512 
L 100.4544 -71.626071 
L 107.5968 -72.269326 
L 114.7392 -72.108512 
L 121.8816 -72.462303 
L 129.024 -71.722559 
L 136.1664 -72.462303 
L 143.3088 -72.462303 
L 150.4512 -72.462303 
L 157.5936 -72.462303 
L 164.736 -72.462303 
L 171.8784 -72.462303 
L 179.0208 -72.462303 
L 186.1632 -72.462303 
L 193.3056 -72.462303 
L 200.448 -72.462303 
L 207.5904 -72.462303 
L 214.7328 -72.269326 
L 221.8752 -72.269326 
L 229.0176 -72.108512 
L 236.16 -72.462303 
L 243.3024 -71.626071 
L 250.4448 -72.462303 
L 257.5872 -72.462303 
L 264.7296 -72.462303 
L 271.872 -72.462303 
L 279.0144 -72.269326 
L 286.1568 -72.462303 
L 293.2992 -71.947699 
L 300.4416 -72.462303 
L 307.584 -72.269326 
L 314.7264 -72.462303 
L 321.8688 -72.462303 
L 329.0112 -72.462303 
L 336.1536 -72.462303 
L 343.296 -71.658234 
L 350.4384 -71.593908 
L 357.5808 -72.462303 
L 364.7232 -72.462303 
L 371.8656 -72.462303 
L 379.008 -71.786885 
L 386.1504 -72.462303 
L 393.2928 -72.462303 
L 400.4352 -72.269326 
L 407.5776 -72.462303 
L 414.72 -72.462303 
L 414.72 -72.462303 
L 414.72 -72.462303 
L 407.5776 -72.301489 
L 400.4352 -71.593908 
L 393.2928 -72.462303 
L 386.1504 -72.462303 
L 379.008 -71.368769 
L 371.8656 -72.462303 
L 364.7232 -72.462303 
L 357.5808 -71.85121 
L 350.4384 -70.32348 
L 343.296 -71.240118 
L 336.1536 -71.947699 
L 329.0112 -72.462303 
L 321.8688 -71.947699 
L 314.7264 -72.462303 
L 307.584 -71.593908 
L 300.4416 -72.269326 
L 293.2992 -71.368769 
L 286.1568 -72.365814 
L 279.0144 -71.626071 
L 271.872 -72.462303 
L 264.7296 -71.786885 
L 257.5872 -72.462303 
L 250.4448 -72.462303 
L 243.3024 -71.240118 
L 236.16 -72.462303 
L 229.0176 -71.561746 
L 221.8752 -71.690397 
L 214.7328 -71.786885 
L 207.5904 -72.269326 
L 200.448 -72.462303 
L 193.3056 -72.462303 
L 186.1632 -72.462303 
L 179.0208 -72.269326 
L 171.8784 -72.462303 
L 164.736 -71.947699 
L 157.5936 -71.786885 
L 150.4512 -72.462303 
L 143.3088 -72.462303 
L 136.1664 -72.462303 
L 129.024 -71.368769 
L 121.8816 -72.462303 
L 114.7392 -71.368769 
L 107.5968 -71.626071 
L 100.4544 -70.805921 
L 93.312 -71.49742 
L 86.1696 -71.819048 
L 79.0272 -71.819048 
L 71.8848 -71.368769 
L 64.7424 -72.462303 
L 57.6 -72.462303 
z
" style="stroke: #1f77b4; stroke-opacity: 0.2"/>
    </defs>
    <g clip-path="url(#p653413f3f1)">
     <use xlink:href="#m3195a0e3f8" x="0" y="345.6" style="fill: #1f77b4; fill-opacity: 0.2; stroke: #1f77b4; stroke-opacity: 0.2"/>
    </g>
   </g>
   <g id="PolyCollection_3">
    <defs>
     <path id="me29c20eae5" d="M 57.6 -55.946732 
L 57.6 -57.490544 
L 64.7424 -56.895533 
L 71.8848 -53.767706 
L 79.0272 -54.949687 
L 86.1696 -54.821036 
L 93.312 -53.912438 
L 100.4544 -53.373712 
L 107.5968 -54.16974 
L 114.7392 -53.799868 
L 121.8816 -57.506625 
L 129.024 -53.606892 
L 136.1664 -57.024184 
L 143.3088 -56.959858 
L 150.4512 -56.50958 
L 157.5936 -54.611978 
L 164.736 -55.399965 
L 171.8784 -56.97594 
L 179.0208 -56.187952 
L 186.1632 -56.766882 
L 193.3056 -56.606068 
L 200.448 -56.413092 
L 207.5904 -55.882406 
L 214.7328 -54.427042 
L 221.8752 -54.298391 
L 229.0176 -53.952641 
L 236.16 -57.410137 
L 243.3024 -53.462159 
L 250.4448 -56.557824 
L 257.5872 -56.380929 
L 264.7296 -54.692385 
L 271.872 -57.104591 
L 279.0144 -54.234065 
L 286.1568 -56.380929 
L 293.2992 -53.751624 
L 300.4416 -56.075383 
L 307.584 -54.033048 
L 314.7264 -57.265404 
L 321.8688 -55.68943 
L 329.0112 -56.86337 
L 336.1536 -55.753755 
L 343.296 -53.534526 
L 350.4384 -53.172695 
L 357.5808 -55.158744 
L 364.7232 -56.686475 
L 371.8656 -56.847289 
L 379.008 -53.687299 
L 386.1504 -56.815126 
L 393.2928 -57.79609 
L 400.4352 -54.065211 
L 407.5776 -56.316603 
L 414.72 -57.79609 
L 414.72 -57.088509 
L 414.72 -57.088509 
L 407.5776 -54.708466 
L 400.4352 -53.550607 
L 393.2928 -57.088509 
L 386.1504 -55.174826 
L 379.008 -53.285264 
L 371.8656 -55.239151 
L 364.7232 -55.078338 
L 357.5808 -54.137577 
L 350.4384 -52.802823 
L 343.296 -53.196817 
L 336.1536 -54.427042 
L 329.0112 -55.255233 
L 321.8688 -54.370757 
L 314.7264 -55.625104 
L 307.584 -53.534526 
L 300.4416 -54.595896 
L 293.2992 -53.333509 
L 286.1568 -54.772791 
L 279.0144 -53.671217 
L 271.872 -55.464291 
L 264.7296 -53.896357 
L 257.5872 -54.837117 
L 250.4448 -54.981849 
L 243.3024 -53.140532 
L 236.16 -55.801999 
L 229.0176 -53.486282 
L 221.8752 -53.70338 
L 214.7328 -53.751624 
L 207.5904 -54.499408 
L 200.448 -54.86928 
L 193.3056 -55.062256 
L 186.1632 -55.126582 
L 179.0208 -54.64414 
L 171.8784 -55.367802 
L 164.736 -54.274269 
L 157.5936 -53.856153 
L 150.4512 -54.933605 
L 143.3088 -55.351721 
L 136.1664 -55.416046 
L 129.024 -53.253102 
L 121.8816 -55.994976 
L 114.7392 -53.365671 
L 107.5968 -53.606892 
L 100.4544 -52.987759 
L 93.312 -53.446078 
L 86.1696 -53.960682 
L 79.0272 -54.041089 
L 71.8848 -53.34959 
L 64.7424 -55.287395 
L 57.6 -55.946732 
z
" style="stroke: #ff7f0e; stroke-opacity: 0.2"/>
    </defs>
    <g clip-path="url(#p653413f3f1)">
     <use xlink:href="#me29c20eae5" x="0" y="345.6" style="fill: #ff7f0e; fill-opacity: 0.2; stroke: #ff7f0e; stroke-opacity: 0.2"/>
    </g>
   </g>
   <g id="PolyCollection_4">
    <defs>
     <path id="m677d466f80" d="M 57.6 -54.837117 
L 57.6 -57.876497 
L 64.7424 -57.184998 
L 71.8848 -53.976763 
L 79.0272 -55.094419 
L 86.1696 -54.949687 
L 93.312 -54.089333 
L 100.4544 -53.614933 
L 107.5968 -54.354676 
L 114.7392 -54.025008 
L 121.8816 -57.876497 
L 129.024 -53.783787 
L 136.1664 -57.345811 
L 143.3088 -57.281486 
L 150.4512 -56.702556 
L 157.5936 -54.788873 
L 164.736 -55.673348 
L 171.8784 -57.32973 
L 179.0208 -56.477417 
L 186.1632 -57.040265 
L 193.3056 -56.782963 
L 200.448 -56.622149 
L 207.5904 -56.284441 
L 214.7328 -54.595896 
L 221.8752 -54.443123 
L 229.0176 -54.105414 
L 236.16 -57.763927 
L 243.3024 -53.679258 
L 250.4448 -56.7508 
L 257.5872 -56.573905 
L 264.7296 -54.917524 
L 271.872 -57.4423 
L 279.0144 -54.370757 
L 286.1568 -56.573905 
L 293.2992 -53.952641 
L 300.4416 -56.445254 
L 307.584 -54.161699 
L 314.7264 -57.651357 
L 321.8688 -56.171871 
L 329.0112 -57.168916 
L 336.1536 -56.204034 
L 343.296 -53.719461 
L 350.4384 -53.421956 
L 357.5808 -55.448209 
L 364.7232 -56.879451 
L 371.8656 -57.136753 
L 379.008 -53.896357 
L 386.1504 -57.104591 
L 393.2928 -58.117717 
L 400.4352 -54.234065 
L 407.5776 -56.50958 
L 414.72 -58.117717 
L 414.72 -56.654312 
L 414.72 -56.654312 
L 407.5776 -53.566688 
L 400.4352 -53.196817 
L 393.2928 -56.654312 
L 386.1504 -54.000886 
L 379.008 -53.036003 
L 371.8656 -54.065211 
L 364.7232 -53.928519 
L 357.5808 -53.421956 
L 350.4384 -52.706335 
L 343.296 -53.011881 
L 336.1536 -53.510404 
L 329.0112 -54.073252 
L 321.8688 -53.462159 
L 314.7264 -54.451164 
L 307.584 -53.188776 
L 300.4416 -53.534526 
L 293.2992 -53.068166 
L 286.1568 -53.622973 
L 279.0144 -53.261142 
L 271.872 -54.29035 
L 264.7296 -53.333509 
L 257.5872 -53.711421 
L 250.4448 -53.848112 
L 243.3024 -53.00384 
L 236.16 -54.660222 
L 229.0176 -53.164654 
L 221.8752 -53.269183 
L 214.7328 -53.277224 
L 207.5904 -53.510404 
L 200.448 -53.735543 
L 193.3056 -53.928519 
L 186.1632 -53.952641 
L 179.0208 -53.542566 
L 171.8784 -54.193862 
L 164.736 -53.454119 
L 157.5936 -53.317427 
L 150.4512 -53.775746 
L 143.3088 -54.185821 
L 136.1664 -54.242106 
L 129.024 -53.036003 
L 121.8816 -54.901442 
L 114.7392 -53.092288 
L 107.5968 -53.212898 
L 100.4544 -52.778701 
L 93.312 -53.132491 
L 86.1696 -53.333509 
L 79.0272 -53.381753 
L 71.8848 -53.092288 
L 64.7424 -54.121496 
L 57.6 -54.837117 
z
" style="stroke: #ff7f0e; stroke-opacity: 0.2"/>
    </defs>
    <g clip-path="url(#p653413f3f1)">
     <use xlink:href="#m677d466f80" x="0" y="345.6" style="fill: #ff7f0e; fill-opacity: 0.2; stroke: #ff7f0e; stroke-opacity: 0.2"/>
    </g>
   </g>
   <g id="PolyCollection_5">
    <defs>
     <path id="mcf4d83816d" d="M 57.6 -72.462303 
L 57.6 -72.462303 
L 64.7424 -72.462303 
L 71.8848 -72.044187 
L 79.0272 -72.43014 
L 86.1696 -72.397977 
L 93.312 -72.108512 
L 100.4544 -71.49742 
L 107.5968 -72.269326 
L 114.7392 -72.108512 
L 121.8816 -72.462303 
L 129.024 -71.819048 
L 136.1664 -72.462303 
L 143.3088 -72.462303 
L 150.4512 -72.462303 
L 157.5936 -72.333652 
L 164.736 -72.43014 
L 171.8784 -72.462303 
L 179.0208 -72.43014 
L 186.1632 -72.462303 
L 193.3056 -72.462303 
L 200.448 -72.462303 
L 207.5904 -72.43014 
L 214.7328 -72.333652 
L 221.8752 -72.333652 
L 229.0176 -72.140675 
L 236.16 -72.462303 
L 243.3024 -71.658234 
L 250.4448 -72.462303 
L 257.5872 -72.462303 
L 264.7296 -72.365814 
L 271.872 -72.462303 
L 279.0144 -72.269326 
L 286.1568 -72.43014 
L 293.2992 -71.979861 
L 300.4416 -72.43014 
L 307.584 -72.140675 
L 314.7264 -72.462303 
L 321.8688 -72.43014 
L 329.0112 -72.462303 
L 336.1536 -72.43014 
L 343.296 -71.754722 
L 350.4384 -71.175793 
L 357.5808 -72.43014 
L 364.7232 -72.462303 
L 371.8656 -72.462303 
L 379.008 -71.819048 
L 386.1504 -72.462303 
L 393.2928 -72.558791 
L 400.4352 -72.172838 
L 407.5776 -72.43014 
L 414.72 -72.558791 
L 414.72 -72.494465 
L 414.72 -72.494465 
L 407.5776 -72.237163 
L 400.4352 -71.85121 
L 393.2928 -72.494465 
L 386.1504 -72.462303 
L 379.008 -71.561746 
L 371.8656 -72.462303 
L 364.7232 -72.462303 
L 357.5808 -72.172838 
L 350.4384 -70.5647 
L 343.296 -71.433095 
L 336.1536 -72.172838 
L 329.0112 -72.462303 
L 321.8688 -72.172838 
L 314.7264 -72.462303 
L 307.584 -71.819048 
L 300.4416 -72.237163 
L 293.2992 -71.658234 
L 286.1568 -72.237163 
L 279.0144 -71.947699 
L 271.872 -72.462303 
L 264.7296 -72.044187 
L 257.5872 -72.333652 
L 250.4448 -72.333652 
L 243.3024 -71.336606 
L 236.16 -72.462303 
L 229.0176 -71.819048 
L 221.8752 -72.012024 
L 214.7328 -72.012024 
L 207.5904 -72.237163 
L 200.448 -72.333652 
L 193.3056 -72.462303 
L 186.1632 -72.462303 
L 179.0208 -72.237163 
L 171.8784 -72.462303 
L 164.736 -72.172838 
L 157.5936 -72.012024 
L 150.4512 -72.333652 
L 143.3088 -72.462303 
L 136.1664 -72.462303 
L 129.024 -71.561746 
L 121.8816 -72.462303 
L 114.7392 -71.786885 
L 107.5968 -71.947699 
L 100.4544 -70.773758 
L 93.312 -71.786885 
L 86.1696 -72.07635 
L 79.0272 -72.172838 
L 71.8848 -71.786885 
L 64.7424 -72.462303 
L 57.6 -72.462303 
z
" style="stroke: #2ca02c; stroke-opacity: 0.2"/>
    </defs>
    <g clip-path="url(#p653413f3f1)">
     <use xlink:href="#mcf4d83816d" x="0" y="345.6" style="fill: #2ca02c; fill-opacity: 0.2; stroke: #2ca02c; stroke-opacity: 0.2"/>
    </g>
   </g>
   <g id="PolyCollection_6">
    <defs>
     <path id="m735afdef47" d="M 57.6 -72.462303 
L 57.6 -72.462303 
L 64.7424 -72.462303 
L 71.8848 -72.205001 
L 79.0272 -72.462303 
L 86.1696 -72.462303 
L 93.312 -72.269326 
L 100.4544 -71.593908 
L 107.5968 -72.462303 
L 114.7392 -72.269326 
L 121.8816 -72.462303 
L 129.024 -71.947699 
L 136.1664 -72.462303 
L 143.3088 -72.462303 
L 150.4512 -72.462303 
L 157.5936 -72.462303 
L 164.736 -72.462303 
L 171.8784 -72.462303 
L 179.0208 -72.462303 
L 186.1632 -72.462303 
L 193.3056 -72.462303 
L 200.448 -72.462303 
L 207.5904 -72.462303 
L 214.7328 -72.462303 
L 221.8752 -72.462303 
L 229.0176 -72.269326 
L 236.16 -72.462303 
L 243.3024 -71.754722 
L 250.4448 -72.462303 
L 257.5872 -72.462303 
L 264.7296 -72.462303 
L 271.872 -72.462303 
L 279.0144 -72.462303 
L 286.1568 -72.462303 
L 293.2992 -72.205001 
L 300.4416 -72.462303 
L 307.584 -72.269326 
L 314.7264 -72.462303 
L 321.8688 -72.462303 
L 329.0112 -72.462303 
L 336.1536 -72.462303 
L 343.296 -71.915536 
L 350.4384 -71.368769 
L 357.5808 -72.462303 
L 364.7232 -72.462303 
L 371.8656 -72.462303 
L 379.008 -71.947699 
L 386.1504 -72.462303 
L 393.2928 -72.623116 
L 400.4352 -72.269326 
L 407.5776 -72.462303 
L 414.72 -72.623116 
L 414.72 -72.462303 
L 414.72 -72.462303 
L 407.5776 -72.108512 
L 400.4352 -71.626071 
L 393.2928 -72.462303 
L 386.1504 -72.462303 
L 379.008 -71.368769 
L 371.8656 -72.462303 
L 364.7232 -72.462303 
L 357.5808 -71.947699 
L 350.4384 -70.130503 
L 343.296 -71.240118 
L 336.1536 -71.979861 
L 329.0112 -72.462303 
L 321.8688 -71.947699 
L 314.7264 -72.462303 
L 307.584 -71.593908 
L 300.4416 -72.108512 
L 293.2992 -71.49742 
L 286.1568 -72.108512 
L 279.0144 -71.786885 
L 271.872 -72.462303 
L 264.7296 -71.786885 
L 257.5872 -72.269326 
L 250.4448 -72.269326 
L 243.3024 -71.111467 
L 236.16 -72.462303 
L 229.0176 -71.593908 
L 221.8752 -71.786885 
L 214.7328 -71.786885 
L 207.5904 -72.108512 
L 200.448 -72.269326 
L 193.3056 -72.462303 
L 186.1632 -72.462303 
L 179.0208 -72.108512 
L 171.8784 -72.462303 
L 164.736 -71.947699 
L 157.5936 -71.786885 
L 150.4512 -72.269326 
L 143.3088 -72.462303 
L 136.1664 -72.462303 
L 129.024 -71.368769 
L 121.8816 -72.462303 
L 114.7392 -71.593908 
L 107.5968 -71.754722 
L 100.4544 -70.243073 
L 93.312 -71.593908 
L 86.1696 -71.819048 
L 79.0272 -71.947699 
L 71.8848 -71.593908 
L 64.7424 -72.462303 
L 57.6 -72.462303 
z
" style="stroke: #2ca02c; stroke-opacity: 0.2"/>
    </defs>
    <g clip-path="url(#p653413f3f1)">
     <use xlink:href="#m735afdef47" x="0" y="345.6" style="fill: #2ca02c; fill-opacity: 0.2; stroke: #2ca02c; stroke-opacity: 0.2"/>
    </g>
   </g>
   <g id="matplotlib.axis_1">
    <g id="xtick_1">
     <g id="line2d_1">
      <defs>
       <path id="md3aefcd551" d="M 0 0 
L 0 3.5 
" style="stroke: #000000; stroke-width: 0.8"/>
      </defs>
      <g>
       <use xlink:href="#md3aefcd551" x="57.6" y="307.584" style="stroke: #000000; stroke-width: 0.8"/>
      </g>
     </g>
     <g id="text_1">
      <!-- 0 -->
      <g transform="translate(52.828125 325.981656) scale(0.15 -0.15)">
       <defs>
        <path id="DejaVuSans-30" d="M 2034 4250 
Q 1547 4250 1301 3770 
Q 1056 3291 1056 2328 
Q 1056 1369 1301 889 
Q 1547 409 2034 409 
Q 2525 409 2770 889 
Q 3016 1369 3016 2328 
Q 3016 3291 2770 3770 
Q 2525 4250 2034 4250 
z
M 2034 4750 
Q 2819 4750 3233 4129 
Q 3647 3509 3647 2328 
Q 3647 1150 3233 529 
Q 2819 -91 2034 -91 
Q 1250 -91 836 529 
Q 422 1150 422 2328 
Q 422 3509 836 4129 
Q 1250 4750 2034 4750 
z
" transform="scale(0.015625)"/>
       </defs>
       <use xlink:href="#DejaVuSans-30"/>
      </g>
     </g>
    </g>
    <g id="xtick_2">
     <g id="line2d_2">
      <g>
       <use xlink:href="#md3aefcd551" x="129.024" y="307.584" style="stroke: #000000; stroke-width: 0.8"/>
      </g>
     </g>
     <g id="text_2">
      <!-- 10 -->
      <g transform="translate(119.48025 325.981656) scale(0.15 -0.15)">
       <defs>
        <path id="DejaVuSans-31" d="M 794 531 
L 1825 531 
L 1825 4091 
L 703 3866 
L 703 4441 
L 1819 4666 
L 2450 4666 
L 2450 531 
L 3481 531 
L 3481 0 
L 794 0 
L 794 531 
z
" transform="scale(0.015625)"/>
       </defs>
       <use xlink:href="#DejaVuSans-31"/>
       <use xlink:href="#DejaVuSans-30" x="63.623047"/>
      </g>
     </g>
    </g>
    <g id="xtick_3">
     <g id="line2d_3">
      <g>
       <use xlink:href="#md3aefcd551" x="200.448" y="307.584" style="stroke: #000000; stroke-width: 0.8"/>
      </g>
     </g>
     <g id="text_3">
      <!-- 20 -->
      <g transform="translate(190.90425 325.981656) scale(0.15 -0.15)">
       <defs>
        <path id="DejaVuSans-32" d="M 1228 531 
L 3431 531 
L 3431 0 
L 469 0 
L 469 531 
Q 828 903 1448 1529 
Q 2069 2156 2228 2338 
Q 2531 2678 2651 2914 
Q 2772 3150 2772 3378 
Q 2772 3750 2511 3984 
Q 2250 4219 1831 4219 
Q 1534 4219 1204 4116 
Q 875 4013 500 3803 
L 500 4441 
Q 881 4594 1212 4672 
Q 1544 4750 1819 4750 
Q 2544 4750 2975 4387 
Q 3406 4025 3406 3419 
Q 3406 3131 3298 2873 
Q 3191 2616 2906 2266 
Q 2828 2175 2409 1742 
Q 1991 1309 1228 531 
z
" transform="scale(0.015625)"/>
       </defs>
       <use xlink:href="#DejaVuSans-32"/>
       <use xlink:href="#DejaVuSans-30" x="63.623047"/>
      </g>
     </g>
    </g>
    <g id="xtick_4">
     <g id="line2d_4">
      <g>
       <use xlink:href="#md3aefcd551" x="271.872" y="307.584" style="stroke: #000000; stroke-width: 0.8"/>
      </g>
     </g>
     <g id="text_4">
      <!-- 30 -->
      <g transform="translate(262.32825 325.981656) scale(0.15 -0.15)">
       <defs>
        <path id="DejaVuSans-33" d="M 2597 2516 
Q 3050 2419 3304 2112 
Q 3559 1806 3559 1356 
Q 3559 666 3084 287 
Q 2609 -91 1734 -91 
Q 1441 -91 1130 -33 
Q 819 25 488 141 
L 488 750 
Q 750 597 1062 519 
Q 1375 441 1716 441 
Q 2309 441 2620 675 
Q 2931 909 2931 1356 
Q 2931 1769 2642 2001 
Q 2353 2234 1838 2234 
L 1294 2234 
L 1294 2753 
L 1863 2753 
Q 2328 2753 2575 2939 
Q 2822 3125 2822 3475 
Q 2822 3834 2567 4026 
Q 2313 4219 1838 4219 
Q 1578 4219 1281 4162 
Q 984 4106 628 3988 
L 628 4550 
Q 988 4650 1302 4700 
Q 1616 4750 1894 4750 
Q 2613 4750 3031 4423 
Q 3450 4097 3450 3541 
Q 3450 3153 3228 2886 
Q 3006 2619 2597 2516 
z
" transform="scale(0.015625)"/>
       </defs>
       <use xlink:href="#DejaVuSans-33"/>
       <use xlink:href="#DejaVuSans-30" x="63.623047"/>
      </g>
     </g>
    </g>
    <g id="xtick_5">
     <g id="line2d_5">
      <g>
       <use xlink:href="#md3aefcd551" x="343.296" y="307.584" style="stroke: #000000; stroke-width: 0.8"/>
      </g>
     </g>
     <g id="text_5">
      <!-- 40 -->
      <g transform="translate(333.75225 325.981656) scale(0.15 -0.15)">
       <defs>
        <path id="DejaVuSans-34" d="M 2419 4116 
L 825 1625 
L 2419 1625 
L 2419 4116 
z
M 2253 4666 
L 3047 4666 
L 3047 1625 
L 3713 1625 
L 3713 1100 
L 3047 1100 
L 3047 0 
L 2419 0 
L 2419 1100 
L 313 1100 
L 313 1709 
L 2253 4666 
z
" transform="scale(0.015625)"/>
       </defs>
       <use xlink:href="#DejaVuSans-34"/>
       <use xlink:href="#DejaVuSans-30" x="63.623047"/>
      </g>
     </g>
    </g>
    <g id="xtick_6">
     <g id="line2d_6">
      <g>
       <use xlink:href="#md3aefcd551" x="414.72" y="307.584" style="stroke: #000000; stroke-width: 0.8"/>
      </g>
     </g>
     <g id="text_6">
      <!-- 50 -->
      <g transform="translate(405.17625 325.981656) scale(0.15 -0.15)">
       <defs>
        <path id="DejaVuSans-35" d="M 691 4666 
L 3169 4666 
L 3169 4134 
L 1269 4134 
L 1269 2991 
Q 1406 3038 1543 3061 
Q 1681 3084 1819 3084 
Q 2600 3084 3056 2656 
Q 3513 2228 3513 1497 
Q 3513 744 3044 326 
Q 2575 -91 1722 -91 
Q 1428 -91 1123 -41 
Q 819 9 494 109 
L 494 744 
Q 775 591 1075 516 
Q 1375 441 1709 441 
Q 2250 441 2565 725 
Q 2881 1009 2881 1497 
Q 2881 1984 2565 2268 
Q 2250 2553 1709 2553 
Q 1456 2553 1204 2497 
Q 953 2441 691 2322 
L 691 4666 
z
" transform="scale(0.015625)"/>
       </defs>
       <use xlink:href="#DejaVuSans-35"/>
       <use xlink:href="#DejaVuSans-30" x="63.623047"/>
      </g>
     </g>
    </g>
    <g id="text_7">
     <!-- Number of Generations -->
     <g transform="translate(148.288125 344.498844) scale(0.15 -0.15)">
      <defs>
       <path id="DejaVuSans-4e" d="M 628 4666 
L 1478 4666 
L 3547 763 
L 3547 4666 
L 4159 4666 
L 4159 0 
L 3309 0 
L 1241 3903 
L 1241 0 
L 628 0 
L 628 4666 
z
" transform="scale(0.015625)"/>
       <path id="DejaVuSans-75" d="M 544 1381 
L 544 3500 
L 1119 3500 
L 1119 1403 
Q 1119 906 1312 657 
Q 1506 409 1894 409 
Q 2359 409 2629 706 
Q 2900 1003 2900 1516 
L 2900 3500 
L 3475 3500 
L 3475 0 
L 2900 0 
L 2900 538 
Q 2691 219 2414 64 
Q 2138 -91 1772 -91 
Q 1169 -91 856 284 
Q 544 659 544 1381 
z
M 1991 3584 
L 1991 3584 
z
" transform="scale(0.015625)"/>
       <path id="DejaVuSans-6d" d="M 3328 2828 
Q 3544 3216 3844 3400 
Q 4144 3584 4550 3584 
Q 5097 3584 5394 3201 
Q 5691 2819 5691 2113 
L 5691 0 
L 5113 0 
L 5113 2094 
Q 5113 2597 4934 2840 
Q 4756 3084 4391 3084 
Q 3944 3084 3684 2787 
Q 3425 2491 3425 1978 
L 3425 0 
L 2847 0 
L 2847 2094 
Q 2847 2600 2669 2842 
Q 2491 3084 2119 3084 
Q 1678 3084 1418 2786 
Q 1159 2488 1159 1978 
L 1159 0 
L 581 0 
L 581 3500 
L 1159 3500 
L 1159 2956 
Q 1356 3278 1631 3431 
Q 1906 3584 2284 3584 
Q 2666 3584 2933 3390 
Q 3200 3197 3328 2828 
z
" transform="scale(0.015625)"/>
       <path id="DejaVuSans-62" d="M 3116 1747 
Q 3116 2381 2855 2742 
Q 2594 3103 2138 3103 
Q 1681 3103 1420 2742 
Q 1159 2381 1159 1747 
Q 1159 1113 1420 752 
Q 1681 391 2138 391 
Q 2594 391 2855 752 
Q 3116 1113 3116 1747 
z
M 1159 2969 
Q 1341 3281 1617 3432 
Q 1894 3584 2278 3584 
Q 2916 3584 3314 3078 
Q 3713 2572 3713 1747 
Q 3713 922 3314 415 
Q 2916 -91 2278 -91 
Q 1894 -91 1617 61 
Q 1341 213 1159 525 
L 1159 0 
L 581 0 
L 581 4863 
L 1159 4863 
L 1159 2969 
z
" transform="scale(0.015625)"/>
       <path id="DejaVuSans-65" d="M 3597 1894 
L 3597 1613 
L 953 1613 
Q 991 1019 1311 708 
Q 1631 397 2203 397 
Q 2534 397 2845 478 
Q 3156 559 3463 722 
L 3463 178 
Q 3153 47 2828 -22 
Q 2503 -91 2169 -91 
Q 1331 -91 842 396 
Q 353 884 353 1716 
Q 353 2575 817 3079 
Q 1281 3584 2069 3584 
Q 2775 3584 3186 3129 
Q 3597 2675 3597 1894 
z
M 3022 2063 
Q 3016 2534 2758 2815 
Q 2500 3097 2075 3097 
Q 1594 3097 1305 2825 
Q 1016 2553 972 2059 
L 3022 2063 
z
" transform="scale(0.015625)"/>
       <path id="DejaVuSans-72" d="M 2631 2963 
Q 2534 3019 2420 3045 
Q 2306 3072 2169 3072 
Q 1681 3072 1420 2755 
Q 1159 2438 1159 1844 
L 1159 0 
L 581 0 
L 581 3500 
L 1159 3500 
L 1159 2956 
Q 1341 3275 1631 3429 
Q 1922 3584 2338 3584 
Q 2397 3584 2469 3576 
Q 2541 3569 2628 3553 
L 2631 2963 
z
" transform="scale(0.015625)"/>
       <path id="DejaVuSans-20" transform="scale(0.015625)"/>
       <path id="DejaVuSans-6f" d="M 1959 3097 
Q 1497 3097 1228 2736 
Q 959 2375 959 1747 
Q 959 1119 1226 758 
Q 1494 397 1959 397 
Q 2419 397 2687 759 
Q 2956 1122 2956 1747 
Q 2956 2369 2687 2733 
Q 2419 3097 1959 3097 
z
M 1959 3584 
Q 2709 3584 3137 3096 
Q 3566 2609 3566 1747 
Q 3566 888 3137 398 
Q 2709 -91 1959 -91 
Q 1206 -91 779 398 
Q 353 888 353 1747 
Q 353 2609 779 3096 
Q 1206 3584 1959 3584 
z
" transform="scale(0.015625)"/>
       <path id="DejaVuSans-66" d="M 2375 4863 
L 2375 4384 
L 1825 4384 
Q 1516 4384 1395 4259 
Q 1275 4134 1275 3809 
L 1275 3500 
L 2222 3500 
L 2222 3053 
L 1275 3053 
L 1275 0 
L 697 0 
L 697 3053 
L 147 3053 
L 147 3500 
L 697 3500 
L 697 3744 
Q 697 4328 969 4595 
Q 1241 4863 1831 4863 
L 2375 4863 
z
" transform="scale(0.015625)"/>
       <path id="DejaVuSans-47" d="M 3809 666 
L 3809 1919 
L 2778 1919 
L 2778 2438 
L 4434 2438 
L 4434 434 
Q 4069 175 3628 42 
Q 3188 -91 2688 -91 
Q 1594 -91 976 548 
Q 359 1188 359 2328 
Q 359 3472 976 4111 
Q 1594 4750 2688 4750 
Q 3144 4750 3555 4637 
Q 3966 4525 4313 4306 
L 4313 3634 
Q 3963 3931 3569 4081 
Q 3175 4231 2741 4231 
Q 1884 4231 1454 3753 
Q 1025 3275 1025 2328 
Q 1025 1384 1454 906 
Q 1884 428 2741 428 
Q 3075 428 3337 486 
Q 3600 544 3809 666 
z
" transform="scale(0.015625)"/>
       <path id="DejaVuSans-6e" d="M 3513 2113 
L 3513 0 
L 2938 0 
L 2938 2094 
Q 2938 2591 2744 2837 
Q 2550 3084 2163 3084 
Q 1697 3084 1428 2787 
Q 1159 2491 1159 1978 
L 1159 0 
L 581 0 
L 581 3500 
L 1159 3500 
L 1159 2956 
Q 1366 3272 1645 3428 
Q 1925 3584 2291 3584 
Q 2894 3584 3203 3211 
Q 3513 2838 3513 2113 
z
" transform="scale(0.015625)"/>
       <path id="DejaVuSans-61" d="M 2194 1759 
Q 1497 1759 1228 1600 
Q 959 1441 959 1056 
Q 959 750 1161 570 
Q 1363 391 1709 391 
Q 2188 391 2477 730 
Q 2766 1069 2766 1631 
L 2766 1759 
L 2194 1759 
z
M 3341 1997 
L 3341 0 
L 2766 0 
L 2766 531 
Q 2569 213 2275 61 
Q 1981 -91 1556 -91 
Q 1019 -91 701 211 
Q 384 513 384 1019 
Q 384 1609 779 1909 
Q 1175 2209 1959 2209 
L 2766 2209 
L 2766 2266 
Q 2766 2663 2505 2880 
Q 2244 3097 1772 3097 
Q 1472 3097 1187 3025 
Q 903 2953 641 2809 
L 641 3341 
Q 956 3463 1253 3523 
Q 1550 3584 1831 3584 
Q 2591 3584 2966 3190 
Q 3341 2797 3341 1997 
z
" transform="scale(0.015625)"/>
       <path id="DejaVuSans-74" d="M 1172 4494 
L 1172 3500 
L 2356 3500 
L 2356 3053 
L 1172 3053 
L 1172 1153 
Q 1172 725 1289 603 
Q 1406 481 1766 481 
L 2356 481 
L 2356 0 
L 1766 0 
Q 1100 0 847 248 
Q 594 497 594 1153 
L 594 3053 
L 172 3053 
L 172 3500 
L 594 3500 
L 594 4494 
L 1172 4494 
z
" transform="scale(0.015625)"/>
       <path id="DejaVuSans-69" d="M 603 3500 
L 1178 3500 
L 1178 0 
L 603 0 
L 603 3500 
z
M 603 4863 
L 1178 4863 
L 1178 4134 
L 603 4134 
L 603 4863 
z
" transform="scale(0.015625)"/>
       <path id="DejaVuSans-73" d="M 2834 3397 
L 2834 2853 
Q 2591 2978 2328 3040 
Q 2066 3103 1784 3103 
Q 1356 3103 1142 2972 
Q 928 2841 928 2578 
Q 928 2378 1081 2264 
Q 1234 2150 1697 2047 
L 1894 2003 
Q 2506 1872 2764 1633 
Q 3022 1394 3022 966 
Q 3022 478 2636 193 
Q 2250 -91 1575 -91 
Q 1294 -91 989 -36 
Q 684 19 347 128 
L 347 722 
Q 666 556 975 473 
Q 1284 391 1588 391 
Q 1994 391 2212 530 
Q 2431 669 2431 922 
Q 2431 1156 2273 1281 
Q 2116 1406 1581 1522 
L 1381 1569 
Q 847 1681 609 1914 
Q 372 2147 372 2553 
Q 372 3047 722 3315 
Q 1072 3584 1716 3584 
Q 2034 3584 2315 3537 
Q 2597 3491 2834 3397 
z
" transform="scale(0.015625)"/>
      </defs>
      <use xlink:href="#DejaVuSans-4e"/>
      <use xlink:href="#DejaVuSans-75" x="74.804688"/>
      <use xlink:href="#DejaVuSans-6d" x="138.183594"/>
      <use xlink:href="#DejaVuSans-62" x="235.595703"/>
      <use xlink:href="#DejaVuSans-65" x="299.072266"/>
      <use xlink:href="#DejaVuSans-72" x="360.595703"/>
      <use xlink:href="#DejaVuSans-20" x="401.708984"/>
      <use xlink:href="#DejaVuSans-6f" x="433.496094"/>
      <use xlink:href="#DejaVuSans-66" x="494.677734"/>
      <use xlink:href="#DejaVuSans-20" x="529.882812"/>
      <use xlink:href="#DejaVuSans-47" x="561.669922"/>
      <use xlink:href="#DejaVuSans-65" x="639.160156"/>
      <use xlink:href="#DejaVuSans-6e" x="700.683594"/>
      <use xlink:href="#DejaVuSans-65" x="764.0625"/>
      <use xlink:href="#DejaVuSans-72" x="825.585938"/>
      <use xlink:href="#DejaVuSans-61" x="866.699219"/>
      <use xlink:href="#DejaVuSans-74" x="927.978516"/>
      <use xlink:href="#DejaVuSans-69" x="967.1875"/>
      <use xlink:href="#DejaVuSans-6f" x="994.970703"/>
      <use xlink:href="#DejaVuSans-6e" x="1056.152344"/>
      <use xlink:href="#DejaVuSans-73" x="1119.53125"/>
     </g>
    </g>
   </g>
   <g id="matplotlib.axis_2">
    <g id="ytick_1">
     <g id="line2d_7">
      <defs>
       <path id="md8b45f225d" d="M 0 0 
L -3.5 0 
" style="stroke: #000000; stroke-width: 0.8"/>
      </defs>
      <g>
       <use xlink:href="#md8b45f225d" x="57.6" y="307.584" style="stroke: #000000; stroke-width: 0.8"/>
      </g>
     </g>
     <g id="text_8">
      <!-- 0.0 -->
      <g transform="translate(26.745313 313.282828) scale(0.15 -0.15)">
       <defs>
        <path id="DejaVuSans-2e" d="M 684 794 
L 1344 794 
L 1344 0 
L 684 0 
L 684 794 
z
" transform="scale(0.015625)"/>
       </defs>
       <use xlink:href="#DejaVuSans-30"/>
       <use xlink:href="#DejaVuSans-2e" x="63.623047"/>
       <use xlink:href="#DejaVuSans-30" x="95.410156"/>
      </g>
     </g>
    </g>
    <g id="ytick_2">
     <g id="line2d_8">
      <g>
       <use xlink:href="#md8b45f225d" x="57.6" y="254.888554" style="stroke: #000000; stroke-width: 0.8"/>
      </g>
     </g>
     <g id="text_9">
      <!-- 0.2 -->
      <g transform="translate(26.745313 260.587383) scale(0.15 -0.15)">
       <use xlink:href="#DejaVuSans-30"/>
       <use xlink:href="#DejaVuSans-2e" x="63.623047"/>
       <use xlink:href="#DejaVuSans-32" x="95.410156"/>
      </g>
     </g>
    </g>
    <g id="ytick_3">
     <g id="line2d_9">
      <g>
       <use xlink:href="#md8b45f225d" x="57.6" y="202.193109" style="stroke: #000000; stroke-width: 0.8"/>
      </g>
     </g>
     <g id="text_10">
      <!-- 0.4 -->
      <g transform="translate(26.745313 207.891937) scale(0.15 -0.15)">
       <use xlink:href="#DejaVuSans-30"/>
       <use xlink:href="#DejaVuSans-2e" x="63.623047"/>
       <use xlink:href="#DejaVuSans-34" x="95.410156"/>
      </g>
     </g>
    </g>
    <g id="ytick_4">
     <g id="line2d_10">
      <g>
       <use xlink:href="#md8b45f225d" x="57.6" y="149.497663" style="stroke: #000000; stroke-width: 0.8"/>
      </g>
     </g>
     <g id="text_11">
      <!-- 0.6 -->
      <g transform="translate(26.745313 155.196491) scale(0.15 -0.15)">
       <defs>
        <path id="DejaVuSans-36" d="M 2113 2584 
Q 1688 2584 1439 2293 
Q 1191 2003 1191 1497 
Q 1191 994 1439 701 
Q 1688 409 2113 409 
Q 2538 409 2786 701 
Q 3034 994 3034 1497 
Q 3034 2003 2786 2293 
Q 2538 2584 2113 2584 
z
M 3366 4563 
L 3366 3988 
Q 3128 4100 2886 4159 
Q 2644 4219 2406 4219 
Q 1781 4219 1451 3797 
Q 1122 3375 1075 2522 
Q 1259 2794 1537 2939 
Q 1816 3084 2150 3084 
Q 2853 3084 3261 2657 
Q 3669 2231 3669 1497 
Q 3669 778 3244 343 
Q 2819 -91 2113 -91 
Q 1303 -91 875 529 
Q 447 1150 447 2328 
Q 447 3434 972 4092 
Q 1497 4750 2381 4750 
Q 2619 4750 2861 4703 
Q 3103 4656 3366 4563 
z
" transform="scale(0.015625)"/>
       </defs>
       <use xlink:href="#DejaVuSans-30"/>
       <use xlink:href="#DejaVuSans-2e" x="63.623047"/>
       <use xlink:href="#DejaVuSans-36" x="95.410156"/>
      </g>
     </g>
    </g>
    <g id="ytick_5">
     <g id="line2d_11">
      <g>
       <use xlink:href="#md8b45f225d" x="57.6" y="96.802218" style="stroke: #000000; stroke-width: 0.8"/>
      </g>
     </g>
     <g id="text_12">
      <!-- 0.8 -->
      <g transform="translate(26.745313 102.501046) scale(0.15 -0.15)">
       <defs>
        <path id="DejaVuSans-38" d="M 2034 2216 
Q 1584 2216 1326 1975 
Q 1069 1734 1069 1313 
Q 1069 891 1326 650 
Q 1584 409 2034 409 
Q 2484 409 2743 651 
Q 3003 894 3003 1313 
Q 3003 1734 2745 1975 
Q 2488 2216 2034 2216 
z
M 1403 2484 
Q 997 2584 770 2862 
Q 544 3141 544 3541 
Q 544 4100 942 4425 
Q 1341 4750 2034 4750 
Q 2731 4750 3128 4425 
Q 3525 4100 3525 3541 
Q 3525 3141 3298 2862 
Q 3072 2584 2669 2484 
Q 3125 2378 3379 2068 
Q 3634 1759 3634 1313 
Q 3634 634 3220 271 
Q 2806 -91 2034 -91 
Q 1263 -91 848 271 
Q 434 634 434 1313 
Q 434 1759 690 2068 
Q 947 2378 1403 2484 
z
M 1172 3481 
Q 1172 3119 1398 2916 
Q 1625 2713 2034 2713 
Q 2441 2713 2670 2916 
Q 2900 3119 2900 3481 
Q 2900 3844 2670 4047 
Q 2441 4250 2034 4250 
Q 1625 4250 1398 4047 
Q 1172 3844 1172 3481 
z
" transform="scale(0.015625)"/>
       </defs>
       <use xlink:href="#DejaVuSans-30"/>
       <use xlink:href="#DejaVuSans-2e" x="63.623047"/>
       <use xlink:href="#DejaVuSans-38" x="95.410156"/>
      </g>
     </g>
    </g>
    <g id="ytick_6">
     <g id="line2d_12">
      <g>
       <use xlink:href="#md8b45f225d" x="57.6" y="44.106772" style="stroke: #000000; stroke-width: 0.8"/>
      </g>
     </g>
     <g id="text_13">
      <!-- 1.0 -->
      <g transform="translate(26.745313 49.8056) scale(0.15 -0.15)">
       <use xlink:href="#DejaVuSans-31"/>
       <use xlink:href="#DejaVuSans-2e" x="63.623047"/>
       <use xlink:href="#DejaVuSans-30" x="95.410156"/>
      </g>
     </g>
    </g>
    <g id="text_14">
     <!-- Performance -->
     <g transform="translate(19.625781 222.051047) rotate(-90) scale(0.15 -0.15)">
      <defs>
       <path id="DejaVuSans-50" d="M 1259 4147 
L 1259 2394 
L 2053 2394 
Q 2494 2394 2734 2622 
Q 2975 2850 2975 3272 
Q 2975 3691 2734 3919 
Q 2494 4147 2053 4147 
L 1259 4147 
z
M 628 4666 
L 2053 4666 
Q 2838 4666 3239 4311 
Q 3641 3956 3641 3272 
Q 3641 2581 3239 2228 
Q 2838 1875 2053 1875 
L 1259 1875 
L 1259 0 
L 628 0 
L 628 4666 
z
" transform="scale(0.015625)"/>
       <path id="DejaVuSans-63" d="M 3122 3366 
L 3122 2828 
Q 2878 2963 2633 3030 
Q 2388 3097 2138 3097 
Q 1578 3097 1268 2742 
Q 959 2388 959 1747 
Q 959 1106 1268 751 
Q 1578 397 2138 397 
Q 2388 397 2633 464 
Q 2878 531 3122 666 
L 3122 134 
Q 2881 22 2623 -34 
Q 2366 -91 2075 -91 
Q 1284 -91 818 406 
Q 353 903 353 1747 
Q 353 2603 823 3093 
Q 1294 3584 2113 3584 
Q 2378 3584 2631 3529 
Q 2884 3475 3122 3366 
z
" transform="scale(0.015625)"/>
      </defs>
      <use xlink:href="#DejaVuSans-50"/>
      <use xlink:href="#DejaVuSans-65" x="56.677734"/>
      <use xlink:href="#DejaVuSans-72" x="118.201172"/>
      <use xlink:href="#DejaVuSans-66" x="159.314453"/>
      <use xlink:href="#DejaVuSans-6f" x="194.519531"/>
      <use xlink:href="#DejaVuSans-72" x="255.701172"/>
      <use xlink:href="#DejaVuSans-6d" x="295.064453"/>
      <use xlink:href="#DejaVuSans-61" x="392.476562"/>
      <use xlink:href="#DejaVuSans-6e" x="453.755859"/>
      <use xlink:href="#DejaVuSans-63" x="517.134766"/>
      <use xlink:href="#DejaVuSans-65" x="572.115234"/>
     </g>
    </g>
   </g>
   <g id="line2d_13">
    <path d="M 57.6 273.137697 
L 64.7424 273.137697 
L 71.8848 273.909603 
L 79.0272 273.427162 
L 86.1696 273.459325 
L 93.312 273.813115 
L 100.4544 274.295556 
L 107.5968 273.652301 
L 114.7392 273.877441 
L 121.8816 273.137697 
L 129.024 274.038254 
L 136.1664 273.137697 
L 143.3088 273.137697 
L 150.4512 273.137697 
L 157.5936 273.491488 
L 164.736 273.362837 
L 171.8784 273.137697 
L 179.0208 273.202023 
L 186.1632 273.137697 
L 193.3056 273.137697 
L 200.448 273.137697 
L 207.5904 273.234186 
L 214.7328 273.555813 
L 221.8752 273.620139 
L 229.0176 273.780952 
L 236.16 273.137697 
L 243.3024 274.134743 
L 250.4448 273.137697 
L 257.5872 273.137697 
L 264.7296 273.491488 
L 271.872 273.137697 
L 279.0144 273.652301 
L 286.1568 273.16986 
L 293.2992 273.941766 
L 300.4416 273.234186 
L 307.584 273.716627 
L 314.7264 273.137697 
L 321.8688 273.362837 
L 329.0112 273.137697 
L 336.1536 273.362837 
L 343.296 274.10258 
L 350.4384 274.649347 
L 357.5808 273.394999 
L 364.7232 273.137697 
L 371.8656 273.137697 
L 379.008 274.006092 
L 386.1504 273.137697 
L 393.2928 273.137697 
L 400.4352 273.716627 
L 407.5776 273.202023 
L 414.72 273.137697 
" clip-path="url(#p653413f3f1)" style="fill: none; stroke: #1f77b4; stroke-width: 1.5; stroke-linecap: square"/>
   </g>
   <g id="line2d_14">
    <path d="M 57.6 288.881362 
L 64.7424 289.508536 
L 71.8848 292.041352 
L 79.0272 291.100592 
L 86.1696 291.205121 
L 93.312 291.920742 
L 100.4544 292.419265 
L 107.5968 291.711684 
L 114.7392 292.01723 
L 121.8816 288.8492 
L 129.024 292.170003 
L 136.1664 289.379885 
L 143.3088 289.44421 
L 150.4512 289.878407 
L 157.5936 291.365935 
L 164.736 290.762883 
L 171.8784 289.428129 
L 179.0208 290.183954 
L 186.1632 289.653268 
L 193.3056 289.765838 
L 200.448 289.958814 
L 207.5904 290.409093 
L 214.7328 291.510667 
L 221.8752 291.599114 
L 229.0176 291.880539 
L 236.16 288.993932 
L 243.3024 292.298654 
L 250.4448 289.830163 
L 257.5872 289.990977 
L 264.7296 291.301609 
L 271.872 289.315559 
L 279.0144 291.647359 
L 286.1568 290.02314 
L 293.2992 292.057434 
L 300.4416 290.26436 
L 307.584 291.816213 
L 314.7264 289.154746 
L 321.8688 290.569907 
L 329.0112 289.540699 
L 336.1536 290.505581 
L 343.296 292.234329 
L 350.4384 292.612241 
L 357.5808 290.95586 
L 364.7232 289.717594 
L 371.8656 289.55678 
L 379.008 292.113718 
L 386.1504 289.605024 
L 393.2928 288.1577 
L 400.4352 291.792091 
L 407.5776 290.087465 
L 414.72 288.1577 
" clip-path="url(#p653413f3f1)" style="fill: none; stroke: #ff7f0e; stroke-width: 1.5; stroke-linecap: square"/>
   </g>
   <g id="line2d_15">
    <path d="M 57.6 273.137697 
L 64.7424 273.137697 
L 71.8848 273.684464 
L 79.0272 273.298511 
L 86.1696 273.362837 
L 93.312 273.652301 
L 100.4544 274.45637 
L 107.5968 273.491488 
L 114.7392 273.652301 
L 121.8816 273.137697 
L 129.024 273.909603 
L 136.1664 273.137697 
L 143.3088 273.137697 
L 150.4512 273.202023 
L 157.5936 273.427162 
L 164.736 273.298511 
L 171.8784 273.137697 
L 179.0208 273.266348 
L 186.1632 273.137697 
L 193.3056 273.137697 
L 200.448 273.202023 
L 207.5904 273.266348 
L 214.7328 273.427162 
L 221.8752 273.427162 
L 229.0176 273.620139 
L 236.16 273.137697 
L 243.3024 274.10258 
L 250.4448 273.202023 
L 257.5872 273.202023 
L 264.7296 273.394999 
L 271.872 273.137697 
L 279.0144 273.491488 
L 286.1568 273.266348 
L 293.2992 273.780952 
L 300.4416 273.266348 
L 307.584 273.620139 
L 314.7264 273.137697 
L 321.8688 273.298511 
L 329.0112 273.137697 
L 336.1536 273.298511 
L 343.296 274.006092 
L 350.4384 274.729753 
L 357.5808 273.298511 
L 364.7232 273.137697 
L 371.8656 273.137697 
L 379.008 273.909603 
L 386.1504 273.137697 
L 393.2928 273.073372 
L 400.4352 273.587976 
L 407.5776 273.266348 
L 414.72 273.073372 
" clip-path="url(#p653413f3f1)" style="fill: none; stroke: #2ca02c; stroke-width: 1.5; stroke-linecap: square"/>
   </g>
   <g id="patch_3">
    <path d="M 57.6 307.584 
L 57.6 41.472 
" style="fill: none; stroke: #000000; stroke-width: 0.8; stroke-linejoin: miter; stroke-linecap: square"/>
   </g>
   <g id="patch_4">
    <path d="M 414.72 307.584 
L 414.72 41.472 
" style="fill: none; stroke: #000000; stroke-width: 0.8; stroke-linejoin: miter; stroke-linecap: square"/>
   </g>
   <g id="patch_5">
    <path d="M 57.6 307.584 
L 414.72 307.584 
" style="fill: none; stroke: #000000; stroke-width: 0.8; stroke-linejoin: miter; stroke-linecap: square"/>
   </g>
   <g id="patch_6">
    <path d="M 57.6 41.472 
L 414.72 41.472 
" style="fill: none; stroke: #000000; stroke-width: 0.8; stroke-linejoin: miter; stroke-linecap: square"/>
   </g>
   <g id="text_15">
    <!-- Best Training Team -->
    <g transform="translate(151.216875 35.472) scale(0.18 -0.18)">
     <defs>
      <path id="DejaVuSans-42" d="M 1259 2228 
L 1259 519 
L 2272 519 
Q 2781 519 3026 730 
Q 3272 941 3272 1375 
Q 3272 1813 3026 2020 
Q 2781 2228 2272 2228 
L 1259 2228 
z
M 1259 4147 
L 1259 2741 
L 2194 2741 
Q 2656 2741 2882 2914 
Q 3109 3088 3109 3444 
Q 3109 3797 2882 3972 
Q 2656 4147 2194 4147 
L 1259 4147 
z
M 628 4666 
L 2241 4666 
Q 2963 4666 3353 4366 
Q 3744 4066 3744 3513 
Q 3744 3084 3544 2831 
Q 3344 2578 2956 2516 
Q 3422 2416 3680 2098 
Q 3938 1781 3938 1306 
Q 3938 681 3513 340 
Q 3088 0 2303 0 
L 628 0 
L 628 4666 
z
" transform="scale(0.015625)"/>
      <path id="DejaVuSans-54" d="M -19 4666 
L 3928 4666 
L 3928 4134 
L 2272 4134 
L 2272 0 
L 1638 0 
L 1638 4134 
L -19 4134 
L -19 4666 
z
" transform="scale(0.015625)"/>
      <path id="DejaVuSans-67" d="M 2906 1791 
Q 2906 2416 2648 2759 
Q 2391 3103 1925 3103 
Q 1463 3103 1205 2759 
Q 947 2416 947 1791 
Q 947 1169 1205 825 
Q 1463 481 1925 481 
Q 2391 481 2648 825 
Q 2906 1169 2906 1791 
z
M 3481 434 
Q 3481 -459 3084 -895 
Q 2688 -1331 1869 -1331 
Q 1566 -1331 1297 -1286 
Q 1028 -1241 775 -1147 
L 775 -588 
Q 1028 -725 1275 -790 
Q 1522 -856 1778 -856 
Q 2344 -856 2625 -561 
Q 2906 -266 2906 331 
L 2906 616 
Q 2728 306 2450 153 
Q 2172 0 1784 0 
Q 1141 0 747 490 
Q 353 981 353 1791 
Q 353 2603 747 3093 
Q 1141 3584 1784 3584 
Q 2172 3584 2450 3431 
Q 2728 3278 2906 2969 
L 2906 3500 
L 3481 3500 
L 3481 434 
z
" transform="scale(0.015625)"/>
     </defs>
     <use xlink:href="#DejaVuSans-42"/>
     <use xlink:href="#DejaVuSans-65" x="68.603516"/>
     <use xlink:href="#DejaVuSans-73" x="130.126953"/>
     <use xlink:href="#DejaVuSans-74" x="182.226562"/>
     <use xlink:href="#DejaVuSans-20" x="221.435547"/>
     <use xlink:href="#DejaVuSans-54" x="253.222656"/>
     <use xlink:href="#DejaVuSans-72" x="299.556641"/>
     <use xlink:href="#DejaVuSans-61" x="340.669922"/>
     <use xlink:href="#DejaVuSans-69" x="401.949219"/>
     <use xlink:href="#DejaVuSans-6e" x="429.732422"/>
     <use xlink:href="#DejaVuSans-69" x="493.111328"/>
     <use xlink:href="#DejaVuSans-6e" x="520.894531"/>
     <use xlink:href="#DejaVuSans-67" x="584.273438"/>
     <use xlink:href="#DejaVuSans-20" x="647.75"/>
     <use xlink:href="#DejaVuSans-54" x="679.537109"/>
     <use xlink:href="#DejaVuSans-65" x="723.621094"/>
     <use xlink:href="#DejaVuSans-61" x="785.144531"/>
     <use xlink:href="#DejaVuSans-6d" x="846.423828"/>
    </g>
   </g>
   <g id="legend_1">
    <g id="patch_7">
     <path d="M 340.02 119.523562 
L 404.22 119.523562 
Q 407.22 119.523562 407.22 116.523562 
L 407.22 51.972 
Q 407.22 48.972 404.22 48.972 
L 340.02 48.972 
Q 337.02 48.972 337.02 51.972 
L 337.02 116.523562 
Q 337.02 119.523562 340.02 119.523562 
z
" style="fill: #ffffff; opacity: 0.8; stroke: #cccccc; stroke-linejoin: miter"/>
    </g>
    <g id="line2d_16">
     <path d="M 343.02 61.119656 
L 358.02 61.119656 
L 373.02 61.119656 
" style="fill: none; stroke: #1f77b4; stroke-width: 1.5; stroke-linecap: square"/>
    </g>
    <g id="text_16">
     <!-- $G$ -->
     <g transform="translate(385.02 66.369656) scale(0.15 -0.15)">
      <defs>
       <path id="DejaVuSans-Oblique-47" d="M 3494 697 
L 3738 1919 
L 2700 1919 
L 2797 2438 
L 4453 2438 
L 4050 384 
Q 3634 156 3143 32 
Q 2653 -91 2156 -91 
Q 1278 -91 783 396 
Q 288 884 288 1753 
Q 288 2475 589 3126 
Q 891 3778 1422 4213 
Q 1756 4484 2153 4617 
Q 2550 4750 3034 4750 
Q 3472 4750 3873 4639 
Q 4275 4528 4641 4306 
L 4513 3634 
Q 4231 3928 3853 4083 
Q 3475 4238 3047 4238 
Q 2550 4238 2172 4048 
Q 1794 3859 1497 3463 
Q 1244 3125 1098 2667 
Q 953 2209 953 1734 
Q 953 1081 1287 751 
Q 1622 422 2284 422 
Q 2616 422 2925 492 
Q 3234 563 3494 697 
z
" transform="scale(0.015625)"/>
      </defs>
      <use xlink:href="#DejaVuSans-Oblique-47" transform="translate(0 0.78125)"/>
     </g>
    </g>
    <g id="line2d_17">
     <path d="M 343.02 83.136844 
L 358.02 83.136844 
L 373.02 83.136844 
" style="fill: none; stroke: #ff7f0e; stroke-width: 1.5; stroke-linecap: square"/>
    </g>
    <g id="text_17">
     <!-- $D$ -->
     <g transform="translate(385.02 88.386844) scale(0.15 -0.15)">
      <defs>
       <path id="DejaVuSans-Oblique-44" d="M 1081 4666 
L 2438 4666 
Q 3519 4666 4070 4208 
Q 4622 3750 4622 2847 
Q 4622 2250 4412 1698 
Q 4203 1147 3834 769 
Q 3463 381 2891 190 
Q 2319 0 1538 0 
L 172 0 
L 1081 4666 
z
M 1613 4147 
L 909 519 
L 1734 519 
Q 2794 519 3375 1128 
Q 3956 1738 3956 2847 
Q 3956 3519 3581 3833 
Q 3206 4147 2406 4147 
L 1613 4147 
z
" transform="scale(0.015625)"/>
      </defs>
      <use xlink:href="#DejaVuSans-Oblique-44" transform="translate(0 0.09375)"/>
     </g>
    </g>
    <g id="line2d_18">
     <path d="M 343.02 105.154031 
L 358.02 105.154031 
L 373.02 105.154031 
" style="fill: none; stroke: #2ca02c; stroke-width: 1.5; stroke-linecap: square"/>
    </g>
    <g id="text_18">
     <!-- $D^I$ -->
     <g transform="translate(385.02 110.404031) scale(0.15 -0.15)">
      <defs>
       <path id="DejaVuSans-Oblique-49" d="M 1081 4666 
L 1716 4666 
L 806 0 
L 172 0 
L 1081 4666 
z
" transform="scale(0.015625)"/>
      </defs>
      <use xlink:href="#DejaVuSans-Oblique-44" transform="translate(0 0.684375)"/>
      <use xlink:href="#DejaVuSans-Oblique-49" transform="translate(84.018724 38.965625) scale(0.7)"/>
     </g>
    </g>
   </g>
  </g>
 </g>
 <defs>
  <clipPath id="p653413f3f1">
   <rect x="57.6" y="41.472" width="357.12" height="266.112"/>
  </clipPath>
 </defs>
</svg>
